<?xml version="1.0" encoding="UTF-8" standalone="yes"?>
<svg width="1024" height="1024" viewBox="0 0 1024 1024" fill="none" version="1.2" baseProfile="tiny-ps" xmlns="http://www.w3.org/2000/svg">
  <title>bimi-svg-tiny-12-ps</title>
  <rect width="1024" height="1024" fill="white"/>
  <path d="M404.213 473.862C337.844 442.091 284.672 480.59 276.009 482.91C211.151 513.487 160.991 421.324 219.468 382.547C237.549 372.568 283.799 329.872 366.168 319.079C422.592 311.683 479.786 323.14 514.57 341.626C498.268 264.936 557.066 193 634.901 193C702.733 193 757.919 248.186 757.919 316.017C757.919 388.997 694.362 446.352 621.305 438.279L628.534 445.509C652.217 469.192 686.796 477.733 718.782 467.802L752.2 457.428C791.849 445.119 832 474.691 832 516.207C832 536.892 821.709 556.07 804.466 567.502C751.488 602.637 687.079 620.855 620.461 616.56C675.023 670.888 701.919 718.722 712.502 733.45C729.039 758.351 725.704 791.765 704.566 812.898C679.922 837.542 639.957 837.537 615.333 812.816L548.773 746.008C520.498 717.625 485.622 697.296 447.221 686.673C401.274 737.632 349.169 782.566 291.55 820.835C228.589 862.653 158.461 777.184 212.184 723.665C286.939 649.189 351.484 565.216 404.213 473.862ZM708.047 316.017C708.047 275.686 675.233 242.872 634.901 242.872C594.57 242.872 561.756 275.686 561.756 316.017C561.756 356.354 594.57 389.163 634.901 389.163C675.233 389.163 708.047 356.354 708.047 316.017ZM584.108 710.81L650.662 777.618C655.922 782.897 664.278 782.658 669.3 777.637C673.716 773.22 674.414 766.244 670.957 761.042C660.217 747.207 618.092 667.017 518.821 595.636C508.505 609.833 498.775 624.204 481.985 645.479C520.249 659.456 555.048 681.637 584.108 710.81ZM263.958 779.29C420.969 675.007 481.044 554.72 497.249 541.757C512.479 529.57 528.069 541.426 530.092 541.923C609.273 580.777 703.284 574.761 776.907 525.938C788.017 518.567 779.847 501.07 766.991 505.058L733.572 515.432C683.847 530.871 630.085 517.592 593.268 480.775L517.817 405.324C505.712 393.219 490.746 383.937 474.531 378.472C441.956 367.498 406.729 364.061 372.647 368.527C303.758 377.555 265.683 413.694 247.031 424.112C238.949 429.47 246.037 441.901 254.744 437.796L274.634 428.422C332.433 401.175 400.567 407.415 452.452 444.704C462.758 452.11 465.858 466.072 459.652 477.138C453.924 485.938 386.258 620.641 247.382 759C244.886 761.486 243.512 764.791 243.507 768.316C243.497 778.773 255.207 785.101 263.958 779.29Z" fill="black"/>
</svg>