<svg width="48" height="48" viewBox="0 0 48 48" fill="none" xmlns="http://www.w3.org/2000/svg">
<path d="M10 28.5727C6.29728 30.2061 4 32.4823 4 35C4 39.9706 12.9543 44 24 44C35.0457 44 44 39.9706 44 35C44 32.4823 41.7027 30.2061 38 28.5727M36 16C36 24.1274 27 28 24 34C21 28 12 24.1274 12 16C12 9.37258 17.3726 4 24 4C30.6274 4 36 9.37258 36 16ZM26 16C26 17.1046 25.1046 18 24 18C22.8954 18 22 17.1046 22 16C22 14.8954 22.8954 14 24 14C25.1046 14 26 14.8954 26 16Z" stroke="#344054" stroke-width="4" stroke-linecap="round" stroke-linejoin="round"/>
</svg>
