<svg width="135" height="32" viewBox="0 0 135 32" fill="none" xmlns="http://www.w3.org/2000/svg">
<path d="M12.0488 3.72708C11.9723 4.07468 11.9605 4.83173 12.0105 5.31188L12.043 5.59466L11.7661 5.45327C10.6231 4.87886 8.54055 4.54599 6.9764 4.68739C5.65085 4.80816 4.38127 5.16754 3.19711 5.75373C2.39884 6.14846 0.743374 7.22954 0.484156 7.52706C0.389894 7.63605 0.245552 7.85992 0.166019 8.03077C0.030518 8.3224 0.0216839 8.36363 0.0216839 8.89975C0.0216839 9.43587 0.0275741 9.46827 0.195477 9.83059C0.557794 10.5876 1.22941 11.0796 1.96288 11.1238C2.43713 11.1532 2.73759 11.0707 3.50346 10.7202C4.44313 10.2872 4.92622 10.1517 5.68326 10.1134C6.02495 10.0957 6.30774 10.1134 6.60525 10.1664C7.01764 10.2371 7.82181 10.4963 7.86894 10.567C7.87777 10.5906 7.66569 10.9706 7.39469 11.4213C5.61845 14.3552 3.63012 16.9239 1.12041 19.5249C0.124776 20.5648 0.0334612 20.7238 0.00695015 21.5368C-0.0107238 22.0258 0.00106133 22.1289 0.092377 22.3823C0.501825 23.5046 1.6094 24.2057 2.69046 24.023C3.1382 23.9435 3.42393 23.808 4.0543 23.3691C5.78341 22.179 7.43298 20.7827 8.83806 19.3187L9.53913 18.5911L9.94858 18.7237C10.7439 18.977 11.7484 19.5072 12.476 20.0581C12.6321 20.1759 13.5099 21.0155 14.426 21.9227C15.3627 22.8477 16.1875 23.6283 16.3053 23.696C17.2597 24.2469 18.5234 24.076 19.251 23.3072C19.9079 22.6061 20.0817 21.5457 19.687 20.6885C19.3246 19.9079 17.6898 17.6897 16.6824 16.6146C16.485 16.4084 16.27 16.1727 16.1993 16.0961L16.0726 15.9547L16.8797 15.9488C18.0933 15.9429 19.1509 15.775 20.2584 15.4098C21.3159 15.0622 22.5649 14.4318 23.1481 13.9634C24.3617 12.9825 24.2616 11.0825 22.9566 10.2371C22.2615 9.78935 21.6134 9.75695 20.4852 10.1193C20.1082 10.2371 19.6663 10.3697 19.4984 10.405C19.0949 10.5052 18.3408 10.4993 17.952 10.405C17.351 10.2548 16.6912 9.87773 16.2641 9.43293L16.108 9.27386L16.7324 9.2444C17.41 9.21494 17.8901 9.11774 18.382 8.89681C19.4219 8.44022 20.2672 7.63604 20.7415 6.64923C21.8373 4.39282 20.9565 1.71812 18.7296 0.539834C18.2701 0.295341 17.8871 0.162779 17.3952 0.0744074C14.9326 -0.37334 12.5732 1.24385 12.043 3.73592L12.0488 3.72708ZM17.2862 1.96261C18.1375 2.19237 18.8239 2.79919 19.142 3.60631C19.6781 4.96134 19.089 6.46071 17.787 7.0852C17.3451 7.29729 17.0388 7.36799 16.5734 7.36799C15.3598 7.36799 14.2463 6.50195 13.9311 5.31777C13.831 4.94662 13.831 4.31623 13.9311 3.93624C14.1609 3.04663 14.8855 2.2778 15.7368 2.00385C16.1875 1.85951 16.8473 1.83889 17.2833 1.96261H17.2862ZM10.411 6.93202C11.3802 7.23837 11.6364 7.43868 13.7014 9.483C14.753 10.5258 15.6102 11.3359 15.7869 11.4566C16.214 11.7424 16.8768 12.0428 17.3893 12.1842C17.7458 12.2844 17.9755 12.3168 18.5411 12.3344C19.3924 12.3639 19.7429 12.305 20.824 11.9692C21.7136 11.6923 21.8432 11.6834 22.014 11.8838C22.1584 12.0575 22.1702 12.2461 22.0376 12.414C21.8108 12.6997 20.5707 13.3272 19.6221 13.6306C17.3422 14.364 14.9975 14.205 12.7352 13.1651C12.1667 12.9059 11.9634 12.8676 11.6865 12.9766C11.4126 13.0797 11.2535 13.2594 10.5083 14.311C8.80272 16.7088 7.20322 18.4615 5.2149 20.12C4.13973 21.0213 2.68751 22.0759 2.44596 22.1348C2.31046 22.1672 2.07481 22.0788 1.95109 21.9433C1.84799 21.8255 1.83916 21.5486 1.93637 21.4043C1.97466 21.3483 2.33992 20.9536 2.74937 20.5265C5.47116 17.678 7.86894 14.4583 9.70114 11.2004C10.0959 10.4963 10.1607 10.2607 10.0546 9.93075C9.97509 9.68625 9.81602 9.51835 9.46254 9.29153C8.31079 8.56689 7.19144 8.23991 5.84821 8.23991C4.70529 8.23991 4.05135 8.39604 2.81712 8.94983C2.19264 9.23556 2.13077 9.25618 2.02179 9.19432C1.88628 9.11479 1.83032 8.9734 1.87745 8.84084C1.93342 8.6965 3.38564 7.74503 4.0543 7.41806C4.99397 6.95264 5.95425 6.67869 7.00586 6.56675C8.08103 6.45482 9.3182 6.58443 10.4081 6.92908L10.411 6.93202ZM12.2226 15.1712C12.2403 15.1712 12.4524 15.3214 12.6939 15.5099C14.1609 16.6234 15.5512 18.0285 16.6883 19.5426C17.1448 20.1524 17.9902 21.4367 18.0226 21.5781C18.0845 21.8049 17.8636 22.1054 17.622 22.1319C17.3628 22.1613 17.3069 22.1142 15.7221 20.5382C13.8899 18.7207 13.4245 18.3349 12.3287 17.7192C12.093 17.5866 11.6718 17.3804 11.389 17.2597C11.1062 17.1418 10.8706 17.0387 10.8617 17.0299C10.8558 17.024 11.0768 16.7147 11.3566 16.3377C11.6335 15.9665 11.9398 15.5541 12.0282 15.4157C12.1166 15.2831 12.2079 15.1712 12.2197 15.1712H12.2226Z" fill="white"/>
<path d="M132.097 23.944C130.589 23.944 129.403 23.5781 128.539 22.8465C127.674 22.1149 127.242 20.7958 127.242 18.8892V9.81062H124.382V7.44952H127.242L127.608 3.49219H130.035V7.44952H134.89V9.81062H130.035V18.8892C130.035 19.9312 130.246 20.6406 130.667 21.0175C131.088 21.3722 131.831 21.5496 132.895 21.5496H134.624V23.944H132.097Z" fill="white"/>
<path d="M119.319 3.79106C118.764 3.79106 118.299 3.6137 117.922 3.25898C117.567 2.88209 117.39 2.41652 117.39 1.86227C117.39 1.3302 117.567 0.886797 117.922 0.532078C118.299 0.177359 118.764 0 119.319 0C119.851 0 120.305 0.177359 120.682 0.532078C121.059 0.886797 121.247 1.3302 121.247 1.86227C121.247 2.41652 121.059 2.88209 120.682 3.25898C120.305 3.6137 119.851 3.79106 119.319 3.79106ZM117.922 23.9435V7.4491H120.715V23.9435H117.922Z" fill="white"/>
<path d="M100.025 23.9435V0.665039H114.191V2.95963H102.818V11.1403H112.495V13.4017H102.818V23.9435H100.025Z" fill="white"/>
<path d="M93.598 3.79106C93.0437 3.79106 92.5782 3.6137 92.2013 3.25898C91.8465 2.88209 91.6692 2.41652 91.6692 1.86227C91.6692 1.3302 91.8465 0.886797 92.2013 0.532078C92.5782 0.177359 93.0437 0 93.598 0C94.1301 0 94.5845 0.177359 94.9614 0.532078C95.3383 0.886797 95.5268 1.3302 95.5268 1.86227C95.5268 2.41652 95.3383 2.88209 94.9614 3.25898C94.5845 3.6137 94.1301 3.79106 93.598 3.79106ZM92.2013 23.9435V7.4491H94.9947V23.9435H92.2013Z" fill="white"/>
<path d="M85.5596 23.944C84.0521 23.944 82.866 23.5781 82.0013 22.8465C81.1367 22.1149 80.7044 20.7958 80.7044 18.8892V9.81062H77.8445V7.44952H80.7044L81.0702 3.49219H83.4978V7.44952H88.353V9.81062H83.4978V18.8892C83.4978 19.9312 83.7084 20.6406 84.1297 21.0175C84.5509 21.3722 85.2936 21.5496 86.3577 21.5496H88.087V23.944H85.5596Z" fill="white"/>
<path d="M58.8094 31.2594V7.44886H61.3368L61.6029 10.1758C62.1349 9.37765 62.8887 8.65712 63.8642 8.0142C64.8618 7.37127 66.1255 7.0498 67.6553 7.0498C69.2958 7.0498 70.7258 7.42669 71.9451 8.18047C73.1645 8.93425 74.1067 9.96515 74.7718 11.2732C75.4591 12.5812 75.8027 14.0666 75.8027 15.7293C75.8027 17.3921 75.4591 18.8775 74.7718 20.1855C74.1067 21.4713 73.1534 22.4912 71.9119 23.2449C70.6925 23.9765 69.2626 24.3424 67.622 24.3424C66.2696 24.3424 65.0614 24.0652 63.9972 23.511C62.9552 22.9567 62.1571 22.1808 61.6029 21.1831V31.2594H58.8094ZM67.3227 21.9147C68.4312 21.9147 69.4067 21.6598 70.2491 21.1499C71.0916 20.6178 71.7567 19.8862 72.2444 18.9551C72.7322 18.0239 72.976 16.9376 72.976 15.6961C72.976 14.4546 72.7322 13.3682 72.2444 12.4371C71.7567 11.506 71.0916 10.7854 70.2491 10.2755C69.4067 9.74345 68.4312 9.47741 67.3227 9.47741C66.2142 9.47741 65.2387 9.74345 64.3963 10.2755C63.5538 10.7854 62.8887 11.506 62.401 12.4371C61.9132 13.3682 61.6694 14.4546 61.6694 15.6961C61.6694 16.9376 61.9132 18.0239 62.401 18.9551C62.8887 19.8862 63.5538 20.6178 64.3963 21.1499C65.2387 21.6598 66.2142 21.9147 67.3227 21.9147Z" fill="white"/>
<path d="M43.4729 24.3422C41.1894 24.3422 39.1831 23.8434 37.4538 22.8457C35.7467 21.8259 34.4054 20.407 33.43 18.5891C32.4767 16.7711 32 14.6761 32 12.3039C32 9.93172 32.4767 7.84774 33.43 6.05198C34.4054 4.23404 35.7467 2.81517 37.4538 1.79535C39.1831 0.775534 41.1894 0.265625 43.4729 0.265625C45.7786 0.265625 47.785 0.775534 49.4921 1.79535C51.2213 2.81517 52.5626 4.23404 53.5159 6.05198C54.4692 7.84774 54.9459 9.93172 54.9459 12.3039C54.9459 14.6761 54.4692 16.7711 53.5159 18.5891C52.5626 20.407 51.2213 21.8259 49.4921 22.8457C47.785 23.8434 45.7786 24.3422 43.4729 24.3422ZM43.4729 21.8813C45.18 21.8813 46.6765 21.5044 47.9624 20.7506C49.2704 19.9747 50.2791 18.8773 50.9886 17.4584C51.7202 16.0174 52.086 14.2992 52.086 12.3039C52.086 10.3086 51.7202 8.60152 50.9886 7.18264C50.2791 5.76377 49.2704 4.67744 47.9624 3.92366C46.6765 3.14772 45.18 2.75974 43.4729 2.75974C41.7659 2.75974 40.2583 3.14772 38.9503 3.92366C37.6644 4.67744 36.6557 5.76377 35.9241 7.18264C35.2146 8.60152 34.8599 10.3086 34.8599 12.3039C34.8599 14.2992 35.2146 16.0174 35.9241 17.4584C36.6557 18.8773 37.6644 19.9747 38.9503 20.7506C40.2583 21.5044 41.7659 21.8813 43.4729 21.8813Z" fill="white"/>
</svg>
