<svg width="134" height="32" viewBox="0 0 134 32" fill="none" xmlns="http://www.w3.org/2000/svg">
<path d="M11.8098 3.65313C11.7347 3.99383 11.7231 4.73586 11.7722 5.20648L11.804 5.48366L11.5326 5.34507C10.4124 4.78206 8.37109 4.45579 6.83798 4.59438C5.53873 4.71276 4.29434 5.065 3.13368 5.63957C2.35124 6.02646 0.728625 7.08609 0.474549 7.37771C0.382158 7.48454 0.24068 7.70396 0.162725 7.87143C0.0299125 8.15726 0.0212536 8.19768 0.0212536 8.72316C0.0212536 9.24864 0.027027 9.2804 0.191599 9.63554C0.546727 10.3776 1.20501 10.8597 1.92393 10.903C2.38877 10.9319 2.68327 10.8511 3.43395 10.5075C4.35497 10.0831 4.82847 9.95025 5.57049 9.91272C5.90541 9.8954 6.18258 9.91272 6.47419 9.96469C6.8784 10.034 7.66661 10.2881 7.7128 10.3574C7.72146 10.3805 7.51359 10.7529 7.24796 11.1947C5.50697 14.0704 3.55809 16.5881 1.09818 19.1375C0.122301 20.1567 0.0327972 20.3126 0.00681225 21.1095C-0.0105111 21.5888 0.00104028 21.6899 0.0905441 21.9382C0.491868 23.0382 1.57746 23.7254 2.63707 23.5464C3.07593 23.4684 3.35599 23.3356 3.97386 22.9054C5.66866 21.7389 7.2855 20.3704 8.6627 18.9354L9.34986 18.2223L9.75118 18.3522C10.5307 18.6005 11.5153 19.1202 12.2284 19.6601C12.3814 19.7756 13.2418 20.5985 14.1398 21.4877C15.0579 22.3943 15.8663 23.1595 15.9818 23.2259C16.9173 23.7658 18.1559 23.5983 18.869 22.8448C19.5129 22.1576 19.6832 21.1182 19.2963 20.278C18.9412 19.5129 17.3388 17.3387 16.3514 16.2849C16.1579 16.0828 15.9472 15.8518 15.8779 15.7767L15.7537 15.6382L16.5448 15.6324C17.7343 15.6266 18.7709 15.462 19.8565 15.104C20.893 14.7633 22.1172 14.1454 22.6888 13.6864C23.8784 12.7249 23.7802 10.8626 22.5011 10.034C21.8198 9.59512 21.1846 9.56336 20.0788 9.91849C19.7092 10.034 19.2761 10.1639 19.1116 10.1986C18.716 10.2967 17.9769 10.2909 17.5958 10.1986C17.0068 10.0513 16.36 9.68174 15.9414 9.24576L15.7884 9.08985L16.4004 9.06098C17.0645 9.0321 17.5351 8.93683 18.0173 8.72028C19.0365 8.27276 19.8651 7.48453 20.3299 6.5173C21.404 4.30566 20.5407 1.68403 18.358 0.529123C17.9076 0.289481 17.5322 0.159549 17.0501 0.072931C14.6364 -0.365933 12.3237 1.21917 11.804 3.66179L11.8098 3.65313ZM16.9432 1.92367C17.7777 2.14887 18.4504 2.74364 18.7622 3.53475C19.2877 4.86289 18.7102 6.33252 17.4341 6.94462C17.001 7.1525 16.7007 7.22179 16.2445 7.22179C15.055 7.22179 13.9636 6.37294 13.6547 5.21226C13.5565 4.84847 13.5565 4.23059 13.6547 3.85813C13.8799 2.98618 14.5902 2.23261 15.4246 1.96409C15.8663 1.82262 16.5131 1.8024 16.9404 1.92367H16.9432ZM10.2045 6.79447C11.1544 7.09475 11.4056 7.29108 13.4295 9.29484C14.4602 10.3169 15.3004 11.1109 15.4737 11.2293C15.8923 11.5094 16.5419 11.8039 17.0443 11.9425C17.3937 12.0406 17.6189 12.0724 18.1732 12.0897C19.0076 12.1186 19.3512 12.0608 20.4108 11.7317C21.2827 11.4603 21.4098 11.4516 21.5772 11.648C21.7187 11.8183 21.7303 12.0031 21.6003 12.1677C21.378 12.4477 20.1625 13.0627 19.2328 13.3601C16.9981 14.079 14.6999 13.9231 12.4825 12.9039C11.9253 12.6498 11.726 12.6123 11.4546 12.7191C11.1861 12.8202 11.0302 12.9963 10.2998 14.0271C8.62806 16.3773 7.0603 18.0952 5.11142 19.7207C4.05759 20.6042 2.63418 21.6379 2.39743 21.6956C2.26462 21.7274 2.03364 21.6408 1.91238 21.508C1.81133 21.3925 1.80267 21.1211 1.89795 20.9796C1.93548 20.9247 2.29349 20.5378 2.69481 20.1192C5.3626 17.3272 7.7128 14.1714 9.50865 10.9781C9.89554 10.2881 9.95906 10.0571 9.85512 9.7337C9.77717 9.49406 9.62126 9.32949 9.27479 9.10717C8.14589 8.39691 7.04875 8.07642 5.73217 8.07642C4.61193 8.07642 3.97097 8.22944 2.76122 8.77225C2.14913 9.05231 2.0885 9.07252 1.98167 9.01189C1.84886 8.93393 1.794 8.79535 1.8402 8.66542C1.89506 8.52395 3.31846 7.59136 3.97386 7.27087C4.89488 6.81468 5.83611 6.54617 6.86685 6.43646C7.92068 6.32674 9.13331 6.45378 10.2016 6.79159L10.2045 6.79447ZM11.9801 14.8701C11.9974 14.8701 12.2053 15.0174 12.4421 15.2022C13.8799 16.2936 15.2427 17.6708 16.3571 19.1548C16.8047 19.7525 17.6333 21.0113 17.665 21.1499C17.7257 21.3723 17.5091 21.6668 17.2724 21.6927C17.0183 21.7216 16.9635 21.6754 15.4101 20.1307C13.6143 18.3493 13.1581 17.9711 12.0841 17.3676C11.8531 17.2377 11.4402 17.0356 11.163 16.9172C10.8859 16.8017 10.6549 16.7007 10.6462 16.692C10.6404 16.6862 10.857 16.3831 11.1313 16.0135C11.4027 15.6497 11.7029 15.2455 11.7896 15.1098C11.8762 14.9799 11.9657 14.8701 11.9772 14.8701H11.9801Z" fill="white"/>
<path d="M40.5597 24.3991C38.2762 24.3991 36.2698 23.9002 34.5406 22.9026C32.8335 21.8828 31.4922 20.4639 30.5167 18.646C29.5634 16.828 29.0868 14.733 29.0868 12.3608C29.0868 9.9886 29.5634 7.90463 30.5167 6.10886C31.4922 4.29093 32.8335 2.87205 34.5406 1.85224C36.2698 0.832418 38.2762 0.322509 40.5597 0.322509C42.8654 0.322509 44.8718 0.832418 46.5789 1.85224C48.3081 2.87205 49.6494 4.29093 50.6027 6.10886C51.556 7.90463 52.0327 9.9886 52.0327 12.3608C52.0327 14.733 51.556 16.828 50.6027 18.646C49.6494 20.4639 48.3081 21.8828 46.5789 22.9026C44.8718 23.9002 42.8654 24.3991 40.5597 24.3991ZM40.5597 21.9382C42.2668 21.9382 43.7633 21.5613 45.0491 20.8075C46.3572 20.0316 47.3659 18.9342 48.0753 17.5153C48.8069 16.0742 49.1727 14.3561 49.1727 12.3608C49.1727 10.3655 48.8069 8.6584 48.0753 7.23953C47.3659 5.82065 46.3572 4.73433 45.0491 3.98055C43.7633 3.2046 42.2668 2.81663 40.5597 2.81663C38.8526 2.81663 37.3451 3.2046 36.0371 3.98055C34.7512 4.73433 33.7425 5.82065 33.0109 7.23953C32.3014 8.6584 31.9467 10.3655 31.9467 12.3608C31.9467 14.3561 32.3014 16.0742 33.0109 17.5153C33.7425 18.9342 34.7512 20.0316 36.0371 20.8075C37.3451 21.5613 38.8526 21.9382 40.5597 21.9382ZM55.8962 31.3161V7.50557H58.4236L58.6896 10.2325C59.2217 9.43435 59.9755 8.71383 60.951 8.0709C61.9486 7.42797 63.2123 7.10651 64.742 7.10651C66.3826 7.10651 67.8126 7.4834 69.0319 8.23718C70.2512 8.99095 71.1935 10.0219 71.8586 11.3299C72.5458 12.6379 72.8895 14.1233 72.8895 15.786C72.8895 17.4488 72.5458 18.9342 71.8586 20.2422C71.1935 21.5281 70.2402 22.5479 68.9986 23.3016C67.7793 24.0333 66.3493 24.3991 64.7088 24.3991C63.3564 24.3991 62.1481 24.1219 61.084 23.5677C60.042 23.0134 59.2439 22.2375 58.6896 21.2398V31.3161H55.8962ZM64.4095 21.9715C65.518 21.9715 66.4934 21.7165 67.3359 21.2066C68.1784 20.6745 68.8435 19.9429 69.3312 19.0118C69.8189 18.0806 70.0628 16.9943 70.0628 15.7528C70.0628 14.5113 69.8189 13.4249 69.3312 12.4938C68.8435 11.5627 68.1784 10.8421 67.3359 10.3322C66.4934 9.80016 65.518 9.53412 64.4095 9.53412C63.301 9.53412 62.3255 9.80016 61.483 10.3322C60.6406 10.8421 59.9755 11.5627 59.4877 12.4938C59 13.4249 58.7561 14.5113 58.7561 15.7528C58.7561 16.9943 59 18.0806 59.4877 19.0118C59.9755 19.9429 60.6406 20.6745 61.483 21.2066C62.3255 21.7165 63.301 21.9715 64.4095 21.9715ZM82.6464 24C81.1388 24 79.9528 23.6342 79.0881 22.9026C78.2235 22.171 77.7912 20.8519 77.7912 18.9453V9.86667H74.9313V7.50557H77.7912L78.157 3.54824H80.5846V7.50557H85.4398V9.86667H80.5846V18.9453C80.5846 19.9872 80.7952 20.6967 81.2164 21.0736C81.6377 21.4283 82.3804 21.6056 83.4445 21.6056H85.1738V24H82.6464ZM90.6847 3.84753C90.1305 3.84753 89.6649 3.67017 89.288 3.31545C88.9333 2.93856 88.7559 2.47299 88.7559 1.91874C88.7559 1.38667 88.9333 0.943267 89.288 0.588547C89.6649 0.233829 90.1305 0.0564697 90.6847 0.0564697C91.2168 0.0564697 91.6713 0.233829 92.0482 0.588547C92.4251 0.943267 92.6135 1.38667 92.6135 1.91874C92.6135 2.47299 92.4251 2.93856 92.0482 3.31545C91.6713 3.67017 91.2168 3.84753 90.6847 3.84753ZM89.288 24V7.50557H92.0814V24H89.288ZM97.1115 24V0.721567H111.278V3.01616H99.9049V11.1969H109.582V13.4582H99.9049V24H97.1115ZM116.405 3.84753C115.851 3.84753 115.386 3.67017 115.009 3.31545C114.654 2.93856 114.477 2.47299 114.477 1.91874C114.477 1.38667 114.654 0.943267 115.009 0.588547C115.386 0.233829 115.851 0.0564697 116.405 0.0564697C116.937 0.0564697 117.392 0.233829 117.769 0.588547C118.146 0.943267 118.334 1.38667 118.334 1.91874C118.334 2.47299 118.146 2.93856 117.769 3.31545C117.392 3.67017 116.937 3.84753 116.405 3.84753ZM115.009 24V7.50557H117.802V24H115.009ZM129.184 24C127.676 24 126.49 23.6342 125.626 22.9026C124.761 22.171 124.329 20.8519 124.329 18.9453V9.86667H121.469V7.50557H124.329L124.694 3.54824H127.122V7.50557H131.977V9.86667H127.122V18.9453C127.122 19.9872 127.333 20.6967 127.754 21.0736C128.175 21.4283 128.918 21.6056 129.982 21.6056H131.711V24H129.184Z" fill="white"/>
</svg>
